<svg height="512pt" viewBox="-94 0 512 512" width="512pt" xmlns="http://www.w3.org/2000/svg"><path d="m307.199219 460.800781v-315.734375c0-80.117187-64.949219-145.066406-145.066407-145.066406-80.117187 0-145.066406 64.949219-145.066406 145.066406v315.734375c-9.421875.011719-17.0546872 7.644531-17.066406 17.066407v25.597656c0 4.714844 3.820312 8.535156 8.535156 8.535156h307.199219c4.710937 0 8.53125-3.820312 8.53125-8.535156v-25.597656c-.011719-9.421876-7.644531-17.054688-17.066406-17.066407zm-273.066407-315.734375c0-70.691406 57.308594-128 128-128 70.691407 0 128 57.308594 128 128v315.734375h-256zm273.066407 349.867188h-290.132813v-17.066406h290.132813zm0 0"/><path d="m256 273.066406h-187.734375c-9.417969.011719-17.054687 7.648438-17.066406 17.066406v136.535157c.011719 9.417969 7.648437 17.050781 17.066406 17.066406h187.734375c9.421875-.015625 17.054688-7.648437 17.066406-17.066406v-136.535157c-.011718-9.417968-7.644531-17.054687-17.066406-17.066406zm-93.867188 85.332032c9.425782 0 17.066407 7.640624 17.066407 17.066406 0 9.425781-7.640625 17.070312-17.066407 17.070312-9.425781 0-17.066406-7.644531-17.066406-17.070312.011719-9.417969 7.648438-17.050782 17.066406-17.066406zm-93.867187 68.269531v-136.535157h85.335937v52.414063c-16.644531 4.296875-27.496093 20.296875-25.328124 37.347656 2.164062 17.050781 16.671874 29.832031 33.859374 29.832031s31.695313-12.78125 33.863282-29.832031c2.164062-17.050781-8.6875-33.050781-25.328125-37.347656v-52.414063h85.332031l.015625 136.535157zm0 0"/><path d="m258.207031 89.601562c-.125-.222656-.339843-.34375-.484375-.550781-9.617187-16.335937-23.230468-29.953125-39.566406-39.566406-.207031-.144531-.332031-.363281-.554688-.492187-.179687-.105469-.382812-.101563-.566406-.191407-33.988281-19.558593-75.816406-19.558593-109.804687 0-.183594.089844-.382813.085938-.5625.191407-.226563.128906-.351563.347656-.558594.492187-16.332031 9.613281-29.949219 23.230469-39.5625 39.5625-.144531.207031-.359375.332031-.488281.554687-.105469.175782-.101563.378907-.1875.5625-19.5625 33.988282-19.5625 75.816407 0 109.808594.082031.183594.082031.382813.1875.5625.214844.320313.453125.628906.710937.917969 9.601563 16.171875 23.132813 29.65625 39.339844 39.195313.207031.148437.332031.363281.558594.496093.253906.117188.515625.226563.78125.320313 33.878906 19.382812 75.488281 19.382812 109.371093 0 .265626-.09375.523438-.203125.78125-.320313.222657-.132812.347657-.347656.554688-.496093 16.207031-9.539063 29.738281-23.023438 39.339844-39.195313.257812-.289063.496094-.597656.710937-.917969.105469-.179687.101563-.378906.191407-.5625 19.558593-33.992187 19.558593-75.820312 0-109.808594-.089844-.183593-.085938-.386718-.191407-.5625zm-41.996093 132.058594-4.019532-6.960937c-1.523437-2.640625-4.339844-4.265625-7.390625-4.265625s-5.867187 1.625-7.390625 4.265625c-1.527344 2.640625-1.527344 5.894531 0 8.535156l4.019532 6.964844c-9.699219 4.515625-20.109376 7.324219-30.761719 8.300781v-16.632812c0-4.714844-3.820313-8.535157-8.535157-8.535157-4.710937 0-8.53125 3.820313-8.53125 8.535157v16.632812c-10.65625-.976562-21.0625-3.785156-30.761718-8.300781l4.019531-6.964844c1.523437-2.640625 1.523437-5.894531 0-8.535156-1.527344-2.640625-4.34375-4.265625-7.394531-4.265625-3.046875 0-5.867188 1.625-7.390625 4.265625l-4.015625 6.960937c-8.726563-6.179687-16.339844-13.792968-22.519532-22.519531l6.960938-4.015625c4.082031-2.355469 5.480469-7.574219 3.125-11.660156-2.355469-4.082032-7.578125-5.480469-11.660156-3.125l-6.960938 4.023437c-4.519531-9.703125-7.328125-20.109375-8.304687-30.761719h16.632812c4.714844 0 8.535157-3.820312 8.535157-8.535156 0-4.710937-3.820313-8.53125-8.535157-8.53125h-16.632812c.976562-10.65625 3.785156-21.0625 8.304687-30.761718l6.960938 4.019531c2.640625 1.523437 5.894531 1.523437 8.535156-.003907 2.640625-1.523437 4.269531-4.339843 4.269531-7.390624-.003906-3.046876-1.628906-5.867188-4.269531-7.390626l-6.960938-4.015624c6.179688-8.726563 13.792969-16.339844 22.519532-22.519532l4.015625 6.960938c1.523437 2.640625 4.34375 4.265625 7.390625 4.265625 3.050781.003906 5.867187-1.625 7.394531-4.265625 1.523437-2.640625 1.523437-5.894532 0-8.535156l-4.019531-6.960938c9.699218-4.519531 20.105468-7.328125 30.761718-8.304688v16.632813c0 4.714844 3.820313 8.535156 8.53125 8.535156 4.714844 0 8.535157-3.820312 8.535157-8.535156v-16.632813c10.652343.976563 21.0625 3.785157 30.761719 8.304688l-4.019532 6.960938c-2.359375 4.082031-.960937 9.304687 3.125 11.660156 4.082032 2.355468 9.300782.957031 11.65625-3.125l4.019532-6.960938c8.722656 6.179688 16.335937 13.792969 22.515624 22.519532l-6.960937 4.015624c-2.640625 1.523438-4.265625 4.34375-4.265625 7.390626 0 3.050781 1.625 5.867187 4.265625 7.390624 2.640625 1.527344 5.894531 1.527344 8.535156.003907l6.964844-4.019531c4.515625 9.699218 7.324219 20.105468 8.300781 30.761718h-16.632812c-4.714844 0-8.535156 3.820313-8.535156 8.53125 0 4.714844 3.820312 8.535156 8.535156 8.535156h16.632812c-.976562 10.652344-3.785156 21.058594-8.300781 30.761719l-6.964844-4.023437c-2.640625-1.523438-5.894531-1.523438-8.535156.003906-2.640625 1.523438-4.265625 4.339844-4.265625 7.390625s1.625 5.867187 4.265625 7.390625l6.960937 4.015625c-6.179687 8.726563-13.792968 16.339844-22.515624 22.519531zm0 0"/><path d="m187.734375 136.535156h-17.066406v-34.136718c0-4.710938-3.820313-8.53125-8.535157-8.53125-4.710937 0-8.53125 3.820312-8.53125 8.53125v42.667968c0 4.714844 3.820313 8.535156 8.53125 8.535156h25.601563c4.710937 0 8.53125-3.820312 8.53125-8.535156 0-4.710937-3.820313-8.53125-8.53125-8.53125zm0 0"/></svg>